<mxfile host="65bd71144e">
    <diagram id="rp46hB5EjFfjxRc2VQmZ" name="페이지-1">
        <mxGraphModel dx="3166" dy="1791" grid="1" gridSize="10" guides="1" tooltips="1" connect="1" arrows="1" fold="1" page="1" pageScale="1" pageWidth="1600" pageHeight="900" math="0" shadow="0">
            <root>
                <mxCell id="0"/>
                <mxCell id="1" parent="0"/>
                <mxCell id="4" value="" style="edgeStyle=none;html=1;" parent="1" source="2" target="3" edge="1">
                    <mxGeometry relative="1" as="geometry"/>
                </mxCell>
                <mxCell id="2" value="subtraction 시작" style="ellipse;whiteSpace=wrap;html=1;" parent="1" vertex="1">
                    <mxGeometry x="295" y="20" width="120" height="60" as="geometry"/>
                </mxCell>
                <mxCell id="6" value="" style="edgeStyle=none;html=1;" parent="1" source="3" edge="1">
                    <mxGeometry relative="1" as="geometry">
                        <mxPoint x="355" y="220" as="targetPoint"/>
                    </mxGeometry>
                </mxCell>
                <mxCell id="3" value="a 부호 == + &amp;amp;&amp;amp;&lt;br&gt;b 부호 == -" style="rhombus;whiteSpace=wrap;html=1;" parent="1" vertex="1">
                    <mxGeometry x="295" y="120" width="120" height="60" as="geometry"/>
                </mxCell>
                <mxCell id="68" value="" style="edgeStyle=none;html=1;" edge="1" parent="1" source="21" target="67">
                    <mxGeometry relative="1" as="geometry"/>
                </mxCell>
                <mxCell id="21" value="true" style="text;html=1;strokeColor=none;fillColor=none;align=center;verticalAlign=middle;whiteSpace=wrap;rounded=0;" parent="1" vertex="1">
                    <mxGeometry x="305" y="180" width="60" height="30" as="geometry"/>
                </mxCell>
                <mxCell id="72" style="edgeStyle=none;html=1;exitX=0.25;exitY=0;exitDx=0;exitDy=0;entryX=1;entryY=0.5;entryDx=0;entryDy=0;rounded=0;" edge="1" parent="1" source="24" target="71">
                    <mxGeometry relative="1" as="geometry">
                        <Array as="points">
                            <mxPoint x="445" y="150"/>
                            <mxPoint x="445" y="450"/>
                        </Array>
                    </mxGeometry>
                </mxCell>
                <mxCell id="24" value="false" style="text;html=1;strokeColor=none;fillColor=none;align=center;verticalAlign=middle;whiteSpace=wrap;rounded=0;" parent="1" vertex="1">
                    <mxGeometry x="395" y="150" width="60" height="30" as="geometry"/>
                </mxCell>
                <mxCell id="70" value="" style="edgeStyle=none;html=1;" edge="1" parent="1" source="67" target="69">
                    <mxGeometry relative="1" as="geometry"/>
                </mxCell>
                <mxCell id="67" value="b 부호 = +" style="rounded=0;whiteSpace=wrap;html=1;" vertex="1" parent="1">
                    <mxGeometry x="295" y="220" width="120" height="60" as="geometry"/>
                </mxCell>
                <mxCell id="69" value="addition(a, b)" style="shape=process;whiteSpace=wrap;html=1;backgroundOutline=1;" vertex="1" parent="1">
                    <mxGeometry x="295" y="320" width="120" height="60" as="geometry"/>
                </mxCell>
                <mxCell id="75" style="edgeStyle=none;rounded=0;html=1;exitX=0;exitY=0.5;exitDx=0;exitDy=0;entryX=0;entryY=0.5;entryDx=0;entryDy=0;" edge="1" parent="1" source="71" target="73">
                    <mxGeometry relative="1" as="geometry">
                        <Array as="points">
                            <mxPoint x="275" y="450"/>
                            <mxPoint x="275" y="550"/>
                        </Array>
                    </mxGeometry>
                </mxCell>
                <mxCell id="79" style="edgeStyle=none;rounded=0;html=1;entryX=0;entryY=0.5;entryDx=0;entryDy=0;" edge="1" parent="1" source="71" target="78">
                    <mxGeometry relative="1" as="geometry">
                        <Array as="points">
                            <mxPoint x="355" y="500"/>
                            <mxPoint x="455" y="500"/>
                            <mxPoint x="455" y="50"/>
                        </Array>
                    </mxGeometry>
                </mxCell>
                <mxCell id="71" value="a 부호 == - &amp;amp;&amp;amp;&lt;br&gt;b 부호 == +" style="rhombus;whiteSpace=wrap;html=1;" vertex="1" parent="1">
                    <mxGeometry x="295" y="420" width="120" height="60" as="geometry"/>
                </mxCell>
                <mxCell id="77" style="edgeStyle=none;rounded=0;html=1;entryX=0;entryY=0.5;entryDx=0;entryDy=0;" edge="1" parent="1" source="73" target="69">
                    <mxGeometry relative="1" as="geometry">
                        <Array as="points">
                            <mxPoint x="355" y="600"/>
                            <mxPoint x="255" y="600"/>
                            <mxPoint x="255" y="350"/>
                        </Array>
                    </mxGeometry>
                </mxCell>
                <mxCell id="73" value="b 부호 = -" style="rounded=0;whiteSpace=wrap;html=1;" vertex="1" parent="1">
                    <mxGeometry x="295" y="520" width="120" height="60" as="geometry"/>
                </mxCell>
                <mxCell id="76" value="true" style="text;html=1;strokeColor=none;fillColor=none;align=center;verticalAlign=middle;whiteSpace=wrap;rounded=0;" vertex="1" parent="1">
                    <mxGeometry x="265" y="450" width="60" height="30" as="geometry"/>
                </mxCell>
                <mxCell id="82" value="" style="edgeStyle=none;rounded=0;html=1;" edge="1" parent="1" source="78" target="81">
                    <mxGeometry relative="1" as="geometry"/>
                </mxCell>
                <mxCell id="78" value="결과 저장할 result init" style="rounded=0;whiteSpace=wrap;html=1;" vertex="1" parent="1">
                    <mxGeometry x="475" y="20" width="120" height="60" as="geometry"/>
                </mxCell>
                <mxCell id="80" value="false" style="text;html=1;strokeColor=none;fillColor=none;align=center;verticalAlign=middle;whiteSpace=wrap;rounded=0;" vertex="1" parent="1">
                    <mxGeometry x="355" y="470" width="60" height="30" as="geometry"/>
                </mxCell>
                <mxCell id="84" value="" style="edgeStyle=none;rounded=0;html=1;" edge="1" parent="1" source="81" target="83">
                    <mxGeometry relative="1" as="geometry"/>
                </mxCell>
                <mxCell id="81" value="a와 b 아래 자릿수 개수 맞춰주기" style="rounded=0;whiteSpace=wrap;html=1;" vertex="1" parent="1">
                    <mxGeometry x="475" y="120" width="120" height="60" as="geometry"/>
                </mxCell>
                <mxCell id="86" value="" style="edgeStyle=none;rounded=0;html=1;" edge="1" parent="1" source="83" target="85">
                    <mxGeometry relative="1" as="geometry"/>
                </mxCell>
                <mxCell id="83" value="a,b 바꿨는지 여부&lt;br&gt;isSwap = false" style="rounded=0;whiteSpace=wrap;html=1;" vertex="1" parent="1">
                    <mxGeometry x="475" y="220" width="120" height="60" as="geometry"/>
                </mxCell>
                <mxCell id="88" style="edgeStyle=none;rounded=0;html=1;exitX=1;exitY=0.5;exitDx=0;exitDy=0;entryX=0;entryY=0.5;entryDx=0;entryDy=0;" edge="1" parent="1" source="85" target="87">
                    <mxGeometry relative="1" as="geometry">
                        <Array as="points">
                            <mxPoint x="615" y="350"/>
                            <mxPoint x="615" y="50"/>
                        </Array>
                    </mxGeometry>
                </mxCell>
                <mxCell id="91" value="" style="edgeStyle=none;rounded=0;html=1;" edge="1" parent="1" source="85" target="90">
                    <mxGeometry relative="1" as="geometry"/>
                </mxCell>
                <mxCell id="85" value="a 소수점 윗자리수 개수&lt;br&gt;==&lt;br&gt;b 소수점 윗자리수 개수" style="rhombus;whiteSpace=wrap;html=1;" vertex="1" parent="1">
                    <mxGeometry x="475" y="320" width="120" height="60" as="geometry"/>
                </mxCell>
                <mxCell id="120" value="" style="edgeStyle=none;rounded=0;html=1;" edge="1" parent="1" source="87" target="119">
                    <mxGeometry relative="1" as="geometry"/>
                </mxCell>
                <mxCell id="124" style="edgeStyle=none;rounded=0;html=1;exitX=1;exitY=0.5;exitDx=0;exitDy=0;entryX=1;entryY=0.5;entryDx=0;entryDy=0;" edge="1" parent="1" source="87" target="122">
                    <mxGeometry relative="1" as="geometry">
                        <Array as="points">
                            <mxPoint x="795" y="50"/>
                            <mxPoint x="795" y="250"/>
                        </Array>
                    </mxGeometry>
                </mxCell>
                <mxCell id="87" value="&lt;span&gt;a 소수점 윗자리수 개수&lt;/span&gt;&lt;br&gt;&amp;lt;&lt;br&gt;&lt;span&gt;b 소수점 윗자리수 개수&lt;/span&gt;" style="rhombus;whiteSpace=wrap;html=1;" vertex="1" parent="1">
                    <mxGeometry x="655" y="20" width="120" height="60" as="geometry"/>
                </mxCell>
                <mxCell id="89" value="false" style="text;html=1;strokeColor=none;fillColor=none;align=center;verticalAlign=middle;whiteSpace=wrap;rounded=0;" vertex="1" parent="1">
                    <mxGeometry x="585" y="350" width="60" height="30" as="geometry"/>
                </mxCell>
                <mxCell id="94" value="" style="edgeStyle=none;rounded=0;html=1;" edge="1" parent="1" source="90" target="93">
                    <mxGeometry relative="1" as="geometry"/>
                </mxCell>
                <mxCell id="90" value="a, b 맨 왼쪽 자리수 가져오기 now_a, now_b" style="rounded=0;whiteSpace=wrap;html=1;" vertex="1" parent="1">
                    <mxGeometry x="475" y="420" width="120" height="60" as="geometry"/>
                </mxCell>
                <mxCell id="92" value="true" style="text;html=1;strokeColor=none;fillColor=none;align=center;verticalAlign=middle;whiteSpace=wrap;rounded=0;" vertex="1" parent="1">
                    <mxGeometry x="485" y="380" width="60" height="30" as="geometry"/>
                </mxCell>
                <mxCell id="96" value="" style="edgeStyle=none;rounded=0;html=1;" edge="1" parent="1" source="93" target="95">
                    <mxGeometry relative="1" as="geometry"/>
                </mxCell>
                <mxCell id="93" value="a_now != tail" style="rhombus;whiteSpace=wrap;html=1;" vertex="1" parent="1">
                    <mxGeometry x="475" y="520" width="120" height="60" as="geometry"/>
                </mxCell>
                <mxCell id="99" style="edgeStyle=none;rounded=0;html=1;exitX=1;exitY=0.5;exitDx=0;exitDy=0;entryX=0;entryY=0.5;entryDx=0;entryDy=0;" edge="1" parent="1" source="95" target="98">
                    <mxGeometry relative="1" as="geometry">
                        <Array as="points">
                            <mxPoint x="625" y="650"/>
                        </Array>
                    </mxGeometry>
                </mxCell>
                <mxCell id="103" value="" style="edgeStyle=none;rounded=0;html=1;" edge="1" parent="1" source="95" target="102">
                    <mxGeometry relative="1" as="geometry"/>
                </mxCell>
                <mxCell id="95" value="a_now 숫자 &amp;gt;&lt;br&gt;b_now 숫자" style="rhombus;whiteSpace=wrap;html=1;" vertex="1" parent="1">
                    <mxGeometry x="475" y="620" width="120" height="60" as="geometry"/>
                </mxCell>
                <mxCell id="97" value="true" style="text;html=1;strokeColor=none;fillColor=none;align=center;verticalAlign=middle;whiteSpace=wrap;rounded=0;" vertex="1" parent="1">
                    <mxGeometry x="485" y="580" width="60" height="30" as="geometry"/>
                </mxCell>
                <mxCell id="116" value="" style="edgeStyle=none;rounded=0;html=1;" edge="1" parent="1" source="98" target="115">
                    <mxGeometry relative="1" as="geometry"/>
                </mxCell>
                <mxCell id="98" value="두 숫자가 완전히 같다면" style="rhombus;whiteSpace=wrap;html=1;" vertex="1" parent="1">
                    <mxGeometry x="655" y="620" width="120" height="60" as="geometry"/>
                </mxCell>
                <mxCell id="100" value="true" style="text;html=1;strokeColor=none;fillColor=none;align=center;verticalAlign=middle;whiteSpace=wrap;rounded=0;" vertex="1" parent="1">
                    <mxGeometry x="575" y="620" width="60" height="30" as="geometry"/>
                </mxCell>
                <mxCell id="107" value="" style="edgeStyle=none;rounded=0;html=1;" edge="1" parent="1" source="102" target="105">
                    <mxGeometry relative="1" as="geometry"/>
                </mxCell>
                <mxCell id="112" style="edgeStyle=none;rounded=0;html=1;entryX=0.5;entryY=1;entryDx=0;entryDy=0;" edge="1" parent="1" source="102" target="110">
                    <mxGeometry relative="1" as="geometry">
                        <Array as="points">
                            <mxPoint x="365" y="750"/>
                        </Array>
                    </mxGeometry>
                </mxCell>
                <mxCell id="102" value="a_now 숫자 &amp;lt;&lt;br&gt;b_now 숫자" style="rhombus;whiteSpace=wrap;html=1;" vertex="1" parent="1">
                    <mxGeometry x="475" y="720" width="120" height="60" as="geometry"/>
                </mxCell>
                <mxCell id="104" value="false" style="text;html=1;strokeColor=none;fillColor=none;align=center;verticalAlign=middle;whiteSpace=wrap;rounded=0;" vertex="1" parent="1">
                    <mxGeometry x="485" y="680" width="60" height="30" as="geometry"/>
                </mxCell>
                <mxCell id="105" value="isSwap = true&lt;br&gt;a, b 서로 바꿈" style="rounded=0;whiteSpace=wrap;html=1;" vertex="1" parent="1">
                    <mxGeometry x="475" y="820" width="120" height="60" as="geometry"/>
                </mxCell>
                <mxCell id="106" value="" style="endArrow=none;html=1;exitX=1;exitY=0.5;exitDx=0;exitDy=0;rounded=0;" edge="1" parent="1" source="105">
                    <mxGeometry width="50" height="50" relative="1" as="geometry">
                        <mxPoint x="835" y="650" as="sourcePoint"/>
                        <mxPoint x="625" y="650" as="targetPoint"/>
                        <Array as="points">
                            <mxPoint x="625" y="850"/>
                        </Array>
                    </mxGeometry>
                </mxCell>
                <mxCell id="108" value="true" style="text;html=1;strokeColor=none;fillColor=none;align=center;verticalAlign=middle;whiteSpace=wrap;rounded=0;" vertex="1" parent="1">
                    <mxGeometry x="485" y="780" width="60" height="30" as="geometry"/>
                </mxCell>
                <mxCell id="114" style="edgeStyle=none;rounded=0;html=1;entryX=0;entryY=0.5;entryDx=0;entryDy=0;" edge="1" parent="1" source="110" target="93">
                    <mxGeometry relative="1" as="geometry">
                        <Array as="points">
                            <mxPoint x="365" y="650"/>
                            <mxPoint x="445" y="650"/>
                            <mxPoint x="445" y="550"/>
                        </Array>
                    </mxGeometry>
                </mxCell>
                <mxCell id="110" value="a_now=a_now-&amp;gt;next&lt;br&gt;b_now=b_now-&amp;gt;next" style="rounded=0;whiteSpace=wrap;html=1;" vertex="1" parent="1">
                    <mxGeometry x="305" y="665" width="120" height="60" as="geometry"/>
                </mxCell>
                <mxCell id="113" value="false" style="text;html=1;strokeColor=none;fillColor=none;align=center;verticalAlign=middle;whiteSpace=wrap;rounded=0;" vertex="1" parent="1">
                    <mxGeometry x="435" y="750" width="60" height="30" as="geometry"/>
                </mxCell>
                <mxCell id="118" value="" style="edgeStyle=none;rounded=0;html=1;" edge="1" parent="1" source="115" target="117">
                    <mxGeometry relative="1" as="geometry"/>
                </mxCell>
                <mxCell id="115" value="a, b 메모리 헤재" style="rounded=0;whiteSpace=wrap;html=1;" vertex="1" parent="1">
                    <mxGeometry x="655" y="720" width="120" height="60" as="geometry"/>
                </mxCell>
                <mxCell id="117" value="result를 0.0으로 리턴" style="rounded=0;whiteSpace=wrap;html=1;" vertex="1" parent="1">
                    <mxGeometry x="655" y="820" width="120" height="60" as="geometry"/>
                </mxCell>
                <mxCell id="123" value="" style="edgeStyle=none;rounded=0;html=1;" edge="1" parent="1" source="119" target="122">
                    <mxGeometry relative="1" as="geometry"/>
                </mxCell>
                <mxCell id="119" value="isSwap = true&lt;br&gt;a, b 서로 바꿈" style="rounded=0;whiteSpace=wrap;html=1;" vertex="1" parent="1">
                    <mxGeometry x="655" y="120" width="120" height="60" as="geometry"/>
                </mxCell>
                <mxCell id="121" value="true" style="text;html=1;strokeColor=none;fillColor=none;align=center;verticalAlign=middle;whiteSpace=wrap;rounded=0;" vertex="1" parent="1">
                    <mxGeometry x="665" y="80" width="60" height="30" as="geometry"/>
                </mxCell>
                <mxCell id="127" value="" style="edgeStyle=none;rounded=0;html=1;" edge="1" parent="1" source="122" target="126">
                    <mxGeometry relative="1" as="geometry"/>
                </mxCell>
                <mxCell id="122" value="소수점 윗 자리수 개수 맞추기" style="rounded=0;whiteSpace=wrap;html=1;" vertex="1" parent="1">
                    <mxGeometry x="655" y="220" width="120" height="60" as="geometry"/>
                </mxCell>
                <mxCell id="125" value="false" style="text;html=1;strokeColor=none;fillColor=none;align=center;verticalAlign=middle;whiteSpace=wrap;rounded=0;" vertex="1" parent="1">
                    <mxGeometry x="745" y="80" width="60" height="30" as="geometry"/>
                </mxCell>
                <mxCell id="129" value="" style="edgeStyle=none;rounded=0;html=1;" edge="1" parent="1" source="126" target="128">
                    <mxGeometry relative="1" as="geometry"/>
                </mxCell>
                <mxCell id="126" value="a, b 맨 오른쪽 자리수 가져오기 now_a, now_b" style="rounded=0;whiteSpace=wrap;html=1;" vertex="1" parent="1">
                    <mxGeometry x="655" y="320" width="120" height="60" as="geometry"/>
                </mxCell>
                <mxCell id="132" style="edgeStyle=none;rounded=0;html=1;exitX=1;exitY=0.5;exitDx=0;exitDy=0;entryX=0;entryY=0.5;entryDx=0;entryDy=0;" edge="1" parent="1" source="128" target="131">
                    <mxGeometry relative="1" as="geometry">
                        <Array as="points">
                            <mxPoint x="805" y="440"/>
                            <mxPoint x="805" y="50"/>
                        </Array>
                    </mxGeometry>
                </mxCell>
                <mxCell id="162" style="edgeStyle=none;rounded=0;html=1;exitX=0;exitY=0.5;exitDx=0;exitDy=0;entryX=0;entryY=0.5;entryDx=0;entryDy=0;" edge="1" parent="1" source="128" target="161">
                    <mxGeometry relative="1" as="geometry">
                        <Array as="points">
                            <mxPoint x="635" y="440"/>
                            <mxPoint x="635" y="500"/>
                            <mxPoint x="995" y="500"/>
                            <mxPoint x="995" y="50"/>
                        </Array>
                    </mxGeometry>
                </mxCell>
                <mxCell id="128" value="b_now != head" style="rhombus;whiteSpace=wrap;html=1;" vertex="1" parent="1">
                    <mxGeometry x="655" y="410" width="120" height="60" as="geometry"/>
                </mxCell>
                <mxCell id="135" value="" style="edgeStyle=none;rounded=0;html=1;" edge="1" parent="1" source="131" target="134">
                    <mxGeometry relative="1" as="geometry"/>
                </mxCell>
                <mxCell id="131" value="now_a, now_b 숫자 데이터 가져옴" style="rounded=0;whiteSpace=wrap;html=1;" vertex="1" parent="1">
                    <mxGeometry x="835" y="20" width="120" height="60" as="geometry"/>
                </mxCell>
                <mxCell id="133" value="true" style="text;html=1;strokeColor=none;fillColor=none;align=center;verticalAlign=middle;whiteSpace=wrap;rounded=0;" vertex="1" parent="1">
                    <mxGeometry x="755" y="410" width="60" height="30" as="geometry"/>
                </mxCell>
                <mxCell id="137" value="" style="edgeStyle=none;rounded=0;html=1;" edge="1" parent="1" source="134" target="136">
                    <mxGeometry relative="1" as="geometry"/>
                </mxCell>
                <mxCell id="134" value="내림 여부&lt;br&gt;is_down == true" style="rhombus;whiteSpace=wrap;html=1;" vertex="1" parent="1">
                    <mxGeometry x="835" y="120" width="120" height="60" as="geometry"/>
                </mxCell>
                <mxCell id="140" value="" style="edgeStyle=none;rounded=0;html=1;" edge="1" parent="1" source="136" target="139">
                    <mxGeometry relative="1" as="geometry"/>
                </mxCell>
                <mxCell id="144" style="edgeStyle=none;rounded=0;html=1;entryX=0;entryY=0.5;entryDx=0;entryDy=0;" edge="1" parent="1" source="136" target="142">
                    <mxGeometry relative="1" as="geometry">
                        <Array as="points">
                            <mxPoint x="815" y="250"/>
                            <mxPoint x="815" y="450"/>
                        </Array>
                    </mxGeometry>
                </mxCell>
                <mxCell id="136" value="가져온 a 숫자&lt;br&gt;a_num == 0" style="rhombus;whiteSpace=wrap;html=1;" vertex="1" parent="1">
                    <mxGeometry x="835" y="220" width="120" height="60" as="geometry"/>
                </mxCell>
                <mxCell id="138" value="true" style="text;html=1;strokeColor=none;fillColor=none;align=center;verticalAlign=middle;whiteSpace=wrap;rounded=0;" vertex="1" parent="1">
                    <mxGeometry x="845" y="180" width="60" height="30" as="geometry"/>
                </mxCell>
                <mxCell id="148" style="edgeStyle=none;rounded=0;html=1;entryX=1;entryY=0.5;entryDx=0;entryDy=0;" edge="1" parent="1" source="139" target="146">
                    <mxGeometry relative="1" as="geometry">
                        <Array as="points">
                            <mxPoint x="975" y="350"/>
                            <mxPoint x="975" y="550"/>
                        </Array>
                    </mxGeometry>
                </mxCell>
                <mxCell id="139" value="a_num = 9" style="rounded=0;whiteSpace=wrap;html=1;" vertex="1" parent="1">
                    <mxGeometry x="835" y="320" width="120" height="60" as="geometry"/>
                </mxCell>
                <mxCell id="141" value="true" style="text;html=1;strokeColor=none;fillColor=none;align=center;verticalAlign=middle;whiteSpace=wrap;rounded=0;" vertex="1" parent="1">
                    <mxGeometry x="845" y="280" width="60" height="30" as="geometry"/>
                </mxCell>
                <mxCell id="147" value="" style="edgeStyle=none;rounded=0;html=1;" edge="1" parent="1" source="142" target="146">
                    <mxGeometry relative="1" as="geometry"/>
                </mxCell>
                <mxCell id="142" value="a_num -= 1&lt;br&gt;is_down = false" style="rounded=0;whiteSpace=wrap;html=1;" vertex="1" parent="1">
                    <mxGeometry x="835" y="420" width="120" height="60" as="geometry"/>
                </mxCell>
                <mxCell id="145" value="false" style="text;html=1;strokeColor=none;fillColor=none;align=center;verticalAlign=middle;whiteSpace=wrap;rounded=0;" vertex="1" parent="1">
                    <mxGeometry x="805" y="250" width="60" height="30" as="geometry"/>
                </mxCell>
                <mxCell id="150" value="" style="edgeStyle=none;rounded=0;html=1;" edge="1" parent="1" source="146" target="149">
                    <mxGeometry relative="1" as="geometry"/>
                </mxCell>
                <mxCell id="154" style="edgeStyle=none;rounded=0;html=1;exitX=0;exitY=0.5;exitDx=0;exitDy=0;entryX=0;entryY=0.5;entryDx=0;entryDy=0;" edge="1" parent="1" source="146" target="152">
                    <mxGeometry relative="1" as="geometry">
                        <Array as="points">
                            <mxPoint x="815" y="550"/>
                            <mxPoint x="815" y="750"/>
                        </Array>
                    </mxGeometry>
                </mxCell>
                <mxCell id="146" value="a_num &amp;lt; b_num" style="rhombus;whiteSpace=wrap;html=1;" vertex="1" parent="1">
                    <mxGeometry x="835" y="520" width="120" height="60" as="geometry"/>
                </mxCell>
                <mxCell id="153" value="" style="edgeStyle=none;rounded=0;html=1;" edge="1" parent="1" source="149" target="152">
                    <mxGeometry relative="1" as="geometry"/>
                </mxCell>
                <mxCell id="149" value="is_down = true&lt;br&gt;a_num += 10" style="rounded=0;whiteSpace=wrap;html=1;" vertex="1" parent="1">
                    <mxGeometry x="835" y="620" width="120" height="60" as="geometry"/>
                </mxCell>
                <mxCell id="151" value="true" style="text;html=1;strokeColor=none;fillColor=none;align=center;verticalAlign=middle;whiteSpace=wrap;rounded=0;" vertex="1" parent="1">
                    <mxGeometry x="845" y="580" width="60" height="30" as="geometry"/>
                </mxCell>
                <mxCell id="157" value="" style="edgeStyle=none;rounded=0;html=1;" edge="1" parent="1" source="152" target="156">
                    <mxGeometry relative="1" as="geometry"/>
                </mxCell>
                <mxCell id="152" value="연산결과=&lt;br&gt;a_num - b_num" style="rounded=0;whiteSpace=wrap;html=1;" vertex="1" parent="1">
                    <mxGeometry x="835" y="720" width="120" height="60" as="geometry"/>
                </mxCell>
                <mxCell id="155" value="false" style="text;html=1;strokeColor=none;fillColor=none;align=center;verticalAlign=middle;whiteSpace=wrap;rounded=0;" vertex="1" parent="1">
                    <mxGeometry x="805" y="550" width="60" height="30" as="geometry"/>
                </mxCell>
                <mxCell id="159" style="edgeStyle=none;rounded=0;html=1;entryX=1;entryY=0.5;entryDx=0;entryDy=0;" edge="1" parent="1" source="156" target="158">
                    <mxGeometry relative="1" as="geometry">
                        <Array as="points">
                            <mxPoint x="795" y="850"/>
                            <mxPoint x="795" y="550"/>
                        </Array>
                    </mxGeometry>
                </mxCell>
                <mxCell id="156" value="연산결과 result-&amp;gt;head 바로 다음 노드에 추가" style="rounded=0;whiteSpace=wrap;html=1;" vertex="1" parent="1">
                    <mxGeometry x="835" y="820" width="120" height="60" as="geometry"/>
                </mxCell>
                <mxCell id="160" style="edgeStyle=none;rounded=0;html=1;entryX=0.5;entryY=1;entryDx=0;entryDy=0;" edge="1" parent="1" source="158" target="128">
                    <mxGeometry relative="1" as="geometry"/>
                </mxCell>
                <mxCell id="158" value="a_now=a_now-&amp;gt;prev&lt;br&gt;b_now=b_now-&amp;gt;prev" style="rounded=0;whiteSpace=wrap;html=1;" vertex="1" parent="1">
                    <mxGeometry x="655" y="520" width="120" height="60" as="geometry"/>
                </mxCell>
                <mxCell id="165" value="" style="edgeStyle=none;rounded=0;html=1;" edge="1" parent="1" source="161" target="164">
                    <mxGeometry relative="1" as="geometry"/>
                </mxCell>
                <mxCell id="161" value="result 소수점 위치=&lt;br&gt;a 소수점 위치" style="rounded=0;whiteSpace=wrap;html=1;" vertex="1" parent="1">
                    <mxGeometry x="1015" y="20" width="120" height="60" as="geometry"/>
                </mxCell>
                <mxCell id="163" value="false" style="text;html=1;strokeColor=none;fillColor=none;align=center;verticalAlign=middle;whiteSpace=wrap;rounded=0;" vertex="1" parent="1">
                    <mxGeometry x="615" y="410" width="60" height="30" as="geometry"/>
                </mxCell>
                <mxCell id="167" value="" style="edgeStyle=none;rounded=0;html=1;" edge="1" parent="1" source="164" target="166">
                    <mxGeometry relative="1" as="geometry"/>
                </mxCell>
                <mxCell id="164" value="소수점 아랫 자리수에서 0 삭제 3.900 -&amp;gt; 3.9" style="rounded=0;whiteSpace=wrap;html=1;" vertex="1" parent="1">
                    <mxGeometry x="1015" y="120" width="120" height="60" as="geometry"/>
                </mxCell>
                <mxCell id="169" value="" style="edgeStyle=none;rounded=0;html=1;" edge="1" parent="1" source="166" target="168">
                    <mxGeometry relative="1" as="geometry"/>
                </mxCell>
                <mxCell id="166" value="소수점 윗 자리수에서 0 삭제 003.9 -&amp;gt; 3.9" style="rounded=0;whiteSpace=wrap;html=1;" vertex="1" parent="1">
                    <mxGeometry x="1015" y="220" width="120" height="60" as="geometry"/>
                </mxCell>
                <mxCell id="171" value="" style="edgeStyle=none;rounded=0;html=1;" edge="1" parent="1" source="168" target="170">
                    <mxGeometry relative="1" as="geometry"/>
                </mxCell>
                <mxCell id="180" value="" style="edgeStyle=none;rounded=0;html=1;entryX=0.5;entryY=0;entryDx=0;entryDy=0;" edge="1" parent="1" source="168" target="182">
                    <mxGeometry relative="1" as="geometry">
                        <mxPoint x="1195" y="350" as="targetPoint"/>
                        <Array as="points">
                            <mxPoint x="1255" y="350"/>
                        </Array>
                    </mxGeometry>
                </mxCell>
                <mxCell id="168" value="isSwap == true" style="rhombus;whiteSpace=wrap;html=1;" vertex="1" parent="1">
                    <mxGeometry x="1015" y="320" width="120" height="60" as="geometry"/>
                </mxCell>
                <mxCell id="173" value="" style="edgeStyle=none;rounded=0;html=1;" edge="1" parent="1" source="170" target="172">
                    <mxGeometry relative="1" as="geometry"/>
                </mxCell>
                <mxCell id="177" style="edgeStyle=none;rounded=0;html=1;exitX=1;exitY=0.5;exitDx=0;exitDy=0;entryX=1;entryY=0.5;entryDx=0;entryDy=0;" edge="1" parent="1" source="170" target="176">
                    <mxGeometry relative="1" as="geometry">
                        <Array as="points">
                            <mxPoint x="1155" y="450"/>
                            <mxPoint x="1155" y="650"/>
                        </Array>
                    </mxGeometry>
                </mxCell>
                <mxCell id="170" value="a 부호 == +" style="rhombus;whiteSpace=wrap;html=1;" vertex="1" parent="1">
                    <mxGeometry x="1015" y="420" width="120" height="60" as="geometry"/>
                </mxCell>
                <mxCell id="172" value="result 부호 = -" style="rounded=0;whiteSpace=wrap;html=1;" vertex="1" parent="1">
                    <mxGeometry x="1015" y="520" width="120" height="60" as="geometry"/>
                </mxCell>
                <mxCell id="174" value="true" style="text;html=1;strokeColor=none;fillColor=none;align=center;verticalAlign=middle;whiteSpace=wrap;rounded=0;" vertex="1" parent="1">
                    <mxGeometry x="1025" y="380" width="60" height="30" as="geometry"/>
                </mxCell>
                <mxCell id="175" value="true" style="text;html=1;strokeColor=none;fillColor=none;align=center;verticalAlign=middle;whiteSpace=wrap;rounded=0;" vertex="1" parent="1">
                    <mxGeometry x="1025" y="480" width="60" height="30" as="geometry"/>
                </mxCell>
                <mxCell id="192" style="edgeStyle=none;rounded=0;html=1;entryX=0;entryY=0.5;entryDx=0;entryDy=0;" edge="1" parent="1" source="176" target="190">
                    <mxGeometry relative="1" as="geometry">
                        <Array as="points">
                            <mxPoint x="1075" y="750"/>
                        </Array>
                    </mxGeometry>
                </mxCell>
                <mxCell id="176" value="result 부호 = +" style="rounded=0;whiteSpace=wrap;html=1;" vertex="1" parent="1">
                    <mxGeometry x="1015" y="620" width="120" height="60" as="geometry"/>
                </mxCell>
                <mxCell id="178" value="false" style="text;html=1;strokeColor=none;fillColor=none;align=center;verticalAlign=middle;whiteSpace=wrap;rounded=0;" vertex="1" parent="1">
                    <mxGeometry x="1105" y="450" width="60" height="30" as="geometry"/>
                </mxCell>
                <mxCell id="181" value="false" style="text;html=1;strokeColor=none;fillColor=none;align=center;verticalAlign=middle;whiteSpace=wrap;rounded=0;" vertex="1" parent="1">
                    <mxGeometry x="1125" y="350" width="60" height="30" as="geometry"/>
                </mxCell>
                <mxCell id="185" value="" style="edgeStyle=none;rounded=0;html=1;" edge="1" parent="1" source="182" target="183">
                    <mxGeometry relative="1" as="geometry"/>
                </mxCell>
                <mxCell id="187" style="edgeStyle=none;rounded=0;html=1;entryX=1;entryY=0.5;entryDx=0;entryDy=0;" edge="1" parent="1" source="182" target="184">
                    <mxGeometry relative="1" as="geometry">
                        <Array as="points">
                            <mxPoint x="1335" y="450"/>
                            <mxPoint x="1335" y="650"/>
                        </Array>
                    </mxGeometry>
                </mxCell>
                <mxCell id="182" value="a 부호 == +" style="rhombus;whiteSpace=wrap;html=1;" vertex="1" parent="1">
                    <mxGeometry x="1195" y="420" width="120" height="60" as="geometry"/>
                </mxCell>
                <mxCell id="196" style="edgeStyle=none;rounded=0;html=1;entryX=0.5;entryY=0;entryDx=0;entryDy=0;" edge="1" parent="1" source="183" target="190">
                    <mxGeometry relative="1" as="geometry">
                        <Array as="points">
                            <mxPoint x="1165" y="550"/>
                            <mxPoint x="1165" y="560"/>
                        </Array>
                    </mxGeometry>
                </mxCell>
                <mxCell id="183" value="result 부호 = +" style="rounded=0;whiteSpace=wrap;html=1;" vertex="1" parent="1">
                    <mxGeometry x="1195" y="520" width="120" height="60" as="geometry"/>
                </mxCell>
                <mxCell id="193" style="edgeStyle=none;rounded=0;html=1;entryX=1;entryY=0.5;entryDx=0;entryDy=0;" edge="1" parent="1" source="184" target="190">
                    <mxGeometry relative="1" as="geometry">
                        <Array as="points">
                            <mxPoint x="1255" y="750"/>
                        </Array>
                    </mxGeometry>
                </mxCell>
                <mxCell id="184" value="result 부호 = -" style="rounded=0;whiteSpace=wrap;html=1;" vertex="1" parent="1">
                    <mxGeometry x="1195" y="620" width="120" height="60" as="geometry"/>
                </mxCell>
                <mxCell id="186" value="true" style="text;html=1;strokeColor=none;fillColor=none;align=center;verticalAlign=middle;whiteSpace=wrap;rounded=0;" vertex="1" parent="1">
                    <mxGeometry x="1205" y="480" width="60" height="30" as="geometry"/>
                </mxCell>
                <mxCell id="188" value="false" style="text;html=1;strokeColor=none;fillColor=none;align=center;verticalAlign=middle;whiteSpace=wrap;rounded=0;" vertex="1" parent="1">
                    <mxGeometry x="1285" y="450" width="60" height="30" as="geometry"/>
                </mxCell>
                <mxCell id="189" value="" style="edgeStyle=none;rounded=0;html=1;strokeColor=#f0f0f0;" edge="1" parent="1" source="190" target="191">
                    <mxGeometry relative="1" as="geometry"/>
                </mxCell>
                <mxCell id="190" value="a, b 메모리 해제" style="rounded=0;whiteSpace=wrap;html=1;" vertex="1" parent="1">
                    <mxGeometry x="1105" y="720" width="120" height="60" as="geometry"/>
                </mxCell>
                <mxCell id="191" value="result 리턴" style="rounded=0;whiteSpace=wrap;html=1;" vertex="1" parent="1">
                    <mxGeometry x="1105" y="820" width="120" height="60" as="geometry"/>
                </mxCell>
                <mxCell id="194" value="" style="endArrow=none;html=1;exitX=0;exitY=0.5;exitDx=0;exitDy=0;rounded=0;" edge="1" parent="1" source="172">
                    <mxGeometry width="50" height="50" relative="1" as="geometry">
                        <mxPoint x="1115" y="660" as="sourcePoint"/>
                        <mxPoint x="1075" y="750" as="targetPoint"/>
                        <Array as="points">
                            <mxPoint x="995" y="550"/>
                            <mxPoint x="995" y="750"/>
                        </Array>
                    </mxGeometry>
                </mxCell>
            </root>
        </mxGraphModel>
    </diagram>
</mxfile>